<svg xmlns="http://www.w3.org/2000/svg"
             viewBox="48.87473961566582 98.99996008174601 456.1800549048821 404.00003991825406"
             width="40"
             height="40">
            <g>
                <path d="M495.02 182.2C498.91 182.2 502.05 185.34 502.05 189.23C502.05 191.38 502.05 190.81 502.05 192.97C502.05 196.85 498.91 200 495.02 200C426.43 200 227.68 200 159.09 200C155.2 200 152.05 196.85 152.05 192.97C152.05 190.81 152.05 191.38 152.05 189.23C152.05 185.34 155.2 182.2 159.09 182.2C227.68 182.2 426.43 182.2 495.02 182.2Z"
                      fill="#d9d9d9"></path>
                <path d="M492.97 282.2C496.85 282.2 500 285.34 500 289.23C500 291.38 500 290.81 500 292.97C500 296.85 496.85 300 492.97 300C424.37 300 225.63 300 157.03 300C153.15 300 150 296.85 150 292.97C150 290.81 150 291.38 150 289.23C150 285.34 153.15 282.2 157.03 282.2C225.63 282.2 424.37 282.2 492.97 282.2Z"
                      fill="#d9d9d9"></path>
                <path d="M130.13 240.06C130.13 262.17 112.17 280.13 90.06 280.13C67.95 280.13 50 262.17 50 240.06C50 217.95 67.95 200 90.06 200C112.17 200 130.13 217.95 130.13 240.06Z"
                      fill="#47bc8a"></path>
                <path d="M492.97 382.2C496.85 382.2 500 385.34 500 389.23C500 391.38 500 390.81 500 392.97C500 396.85 496.85 400 492.97 400C424.37 400 225.63 400 157.03 400C153.15 400 150 396.85 150 392.97C150 390.81 150 391.38 150 389.23C150 385.34 153.15 382.2 157.03 382.2C225.63 382.2 424.37 382.2 492.97 382.2Z"
                      fill="#d9d9d9"></path>
                <path d="M432.2 108.04C432.2 103.6 435.79 100 440.23 100C442.19 100 440.01 100 441.96 100C446.4 100 450 103.6 450 108.04C450 186.43 449.99 413.57 449.99 491.96C449.99 496.4 446.39 500 441.95 500C440 500 442.17 500 440.22 500C435.78 500 432.18 496.4 432.18 491.96C432.18 413.57 432.19 186.43 432.2 108.04Z"
                      fill="#d9d9d9"></path>
                <path d="M492.97 482.2C496.85 482.2 500 485.34 500 489.23C500 491.38 500 490.81 500 492.97C500 496.85 496.85 500 492.97 500C424.37 500 225.63 500 157.03 500C153.15 500 150 496.85 150 492.97C150 490.81 150 491.38 150 489.23C150 485.34 153.15 482.2 157.03 482.2C225.63 482.2 424.37 482.2 492.97 482.2Z"
                      fill="#d9d9d9"></path>
                <path d="M282.2 108.04C282.2 103.6 285.79 100 290.23 100C292.19 100 290.01 100 291.96 100C296.4 100 300 103.6 300 108.04C300 186.43 299.99 413.57 299.99 491.96C299.99 496.4 296.39 500 291.95 500C290 500 292.17 500 290.22 500C285.78 500 282.18 496.4 282.18 491.96C282.18 413.57 282.19 186.43 282.2 108.04Z"
                      fill="#d9d9d9"></path>
                <path d="M130.13 340.06C130.13 362.17 112.17 380.13 90.06 380.13C67.95 380.13 50 362.17 50 340.06C50 317.95 67.95 300 90.06 300C112.17 300 130.13 317.95 130.13 340.06Z"
                      fill="#f78b04"></path>
                <path d="M130 440.06C130 462.17 112.05 480.13 89.94 480.13C67.83 480.13 49.87 462.17 49.87 440.06C49.87 417.95 67.83 400 89.94 400C112.05 400 130 417.95 130 440.06Z"
                      fill="#403194"></path>
            </g>
        </svg>