<svg xmlns="http://www.w3.org/2000/svg"
             viewBox="48.87473961566582 98.99996008174601 456.1800549048821 404.00003991825406"
             width="40"
             height="40">
            <g>
                <g>
                    <g>
                        <path d="M495.02 182.2C498.91 182.2 502.05 185.34 502.05 189.23C502.05 191.38 502.05 190.81 502.05 192.97C502.05 196.85 498.91 200 495.02 200C426.43 200 227.68 200 159.09 200C155.2 200 152.05 196.85 152.05 192.97C152.05 190.81 152.05 191.38 152.05 189.23C152.05 185.34 155.2 182.2 159.09 182.2C227.68 182.2 426.43 182.2 495.02 182.2Z"
                              opacity="1"
                              fill="#d9d9d9"
                              fill-opacity="1"></path>
                    </g>
                    <g>
                        <path d="M492.97 282.2C496.85 282.2 500 285.34 500 289.23C500 291.38 500 290.81 500 292.97C500 296.85 496.85 300 492.97 300C424.37 300 225.63 300 157.03 300C153.15 300 150 296.85 150 292.97C150 290.81 150 291.38 150 289.23C150 285.34 153.15 282.2 157.03 282.2C225.63 282.2 424.37 282.2 492.97 282.2Z"
                              opacity="1"
                              fill="#d9d9d9"
                              fill-opacity="1"></path>
                    </g>
                    <g>
                        <path d="M130.13 240.06C130.13 262.17 112.17 280.13 90.06 280.13C67.95 280.13 50 262.17 50 240.06C50 217.95 67.95 200 90.06 200C112.17 200 130.13 217.95 130.13 240.06Z"
                              opacity="1"
                              fill="#47bc8a"
                              fill-opacity="1"></path>
                    </g>
                    <g>
                        <path d="M492.97 382.2C496.85 382.2 500 385.34 500 389.23C500 391.38 500 390.81 500 392.97C500 396.85 496.85 400 492.97 400C424.37 400 225.63 400 157.03 400C153.15 400 150 396.85 150 392.97C150 390.81 150 391.38 150 389.23C150 385.34 153.15 382.2 157.03 382.2C225.63 382.2 424.37 382.2 492.97 382.2Z"
                              opacity="1"
                              fill="#d9d9d9"
                              fill-opacity="1"></path>
                    </g>
                    <g>
                        <path d="M384.94 108.04C384.94 103.6 388.53 100 392.97 100C394.93 100 392.75 100 394.7 100C399.14 100 402.74 103.6 402.74 108.04C402.74 186.43 402.73 413.57 402.73 491.96C402.73 496.4 399.13 500 394.69 500C392.74 500 394.91 500 392.96 500C388.52 500 384.92 496.4 384.92 491.96C384.92 413.57 384.93 186.43 384.94 108.04Z"
                              opacity="1"
                              fill="#d9d9d9"
                              fill-opacity="1"></path>
                    </g>
                    <g>
                        <path d="M492.97 482.2C496.85 482.2 500 485.34 500 489.23C500 491.38 500 490.81 500 492.97C500 496.85 496.85 500 492.97 500C424.37 500 225.63 500 157.03 500C153.15 500 150 496.85 150 492.97C150 490.81 150 491.38 150 489.23C150 485.34 153.15 482.2 157.03 482.2C225.63 482.2 424.37 482.2 492.97 482.2Z"
                              opacity="1"
                              fill="#d9d9d9"
                              fill-opacity="1"></path>
                    </g>
                    <g>
                        <path d="M262.2 108.04C262.2 103.6 265.79 100 270.23 100C272.19 100 270.01 100 271.96 100C276.4 100 280 103.6 280 108.04C280 186.43 279.99 413.57 279.99 491.96C279.99 496.4 276.39 500 271.95 500C270 500 272.17 500 270.22 500C265.78 500 262.18 496.4 262.18 491.96C262.18 413.57 262.19 186.43 262.2 108.04Z"
                              opacity="1"
                              fill="#d9d9d9"
                              fill-opacity="1"></path>
                    </g>
                    <g>
                        <path d="M130.13 340.06C130.13 362.17 112.17 380.13 90.06 380.13C67.95 380.13 50 362.17 50 340.06C50 317.95 67.95 300 90.06 300C112.17 300 130.13 317.95 130.13 340.06Z"
                              opacity="1"
                              fill="#f78b04"
                              fill-opacity="1"></path>
                    </g>
                    <g>
                        <path d="M130 440.06C130 462.17 112.05 480.13 89.94 480.13C67.83 480.13 49.87 462.17 49.87 440.06C49.87 417.95 67.83 400 89.94 400C112.05 400 130 417.95 130 440.06Z"
                              opacity="1"
                              fill="#403194"
                              fill-opacity="1"></path>
                    </g>
                    <g>
                        <g>
                            <path d=""
                                  opacity="1"
                                  fill-opacity="0"
                                  stroke="#000000"
                                  stroke-width="1"
                                  stroke-opacity="1"></path>
                        </g>
                    </g>
                    <g>
                        <path d="M250.13 130.06C250.13 152.17 232.17 170.13 210.06 170.13C187.95 170.13 170 152.17 170 130.06C170 107.95 187.95 90 210.06 90C232.17 90 250.13 107.95 250.13 130.06Z"
                              opacity="1"
                              fill="#47bc8a"
                              fill-opacity="1"></path>
                    </g>
                    <g>
                        <path d="M374.11 129.94C374.11 152.05 356.16 170 334.05 170C311.94 170 293.98 152.05 293.98 129.94C293.98 107.83 311.94 89.87 334.05 89.87C356.16 89.87 374.11 107.83 374.11 129.94Z"
                              opacity="1"
                              fill="#f78b04"
                              fill-opacity="1"></path>
                    </g>
                    <g>
                        <path d="M494.79 130.06C494.79 152.17 476.84 170.13 454.73 170.13C432.62 170.13 414.67 152.17 414.67 130.06C414.67 107.95 432.62 90 454.73 90C476.84 90 494.79 107.95 494.79 130.06Z"
                              opacity="1"
                              fill="#403194"
                              fill-opacity="1"></path>
                    </g>
                </g>
            </g>
        </svg>