<svg version="1.1"
             xmlns="http://www.w3.org/2000/svg"
             xmlns:xlink="http://www.w3.org/1999/xlink"
             preserveAspectRatio="xMidYMid meet"
             viewBox="110 90 440 440"
             width="40"
             height="40">
            <defs>
                <path d="M297.68 146.16C301.19 146.16 304.04 149.01 304.04 152.52C304.04 178.51 304.04 250.12 304.04 276.11C304.04 279.62 301.19 282.47 297.68 282.47C271.69 282.47 200.09 282.47 174.1 282.47C170.59 282.47 167.74 279.62 167.74 276.11C167.74 250.12 167.74 178.51 167.74 152.52C167.74 149.01 170.59 146.16 174.1 146.16C200.09 146.16 271.69 146.16 297.68 146.16Z"
                      id="c79884mYh9"></path>
                <path d="M496.79 146.16C500.3 146.16 503.15 149.01 503.15 152.52C503.15 178.51 503.15 250.12 503.15 276.11C503.15 279.62 500.3 282.46 496.79 282.46C470.8 282.46 399.2 282.46 373.21 282.46C369.7 282.46 366.85 279.62 366.85 276.11C366.85 250.12 366.85 178.51 366.85 152.52C366.85 149.01 369.7 146.16 373.21 146.16C399.2 146.16 470.8 146.16 496.79 146.16Z"
                      id="c1jy60AYg2"></path>
                <path d="M497.48 348.01C500.99 348.01 503.83 350.86 503.83 354.37C503.83 380.36 503.83 451.97 503.83 477.96C503.83 481.47 500.99 484.31 497.48 484.31C471.49 484.31 399.88 484.31 373.89 484.31C370.38 484.31 367.53 481.47 367.53 477.96C367.53 451.97 367.53 380.36 367.53 354.37C367.53 350.86 370.38 348.01 373.89 348.01C399.88 348.01 471.49 348.01 497.48 348.01Z"
                      id="a7ZgerjaCn"></path>
                <path d="M297.48 348.22C300.99 348.22 303.83 351.07 303.83 354.58C303.83 380.57 303.83 452.17 303.83 478.16C303.83 481.67 300.99 484.52 297.48 484.52C271.49 484.52 199.88 484.52 173.89 484.52C170.38 484.52 167.53 481.67 167.53 478.16C167.53 452.17 167.53 380.57 167.53 354.58C167.53 351.07 170.38 348.22 173.89 348.22C199.88 348.22 271.49 348.22 297.48 348.22Z"
                      id="dOCr6CfuV"></path>
            </defs>
            <g>
                <g>
                    <g>
                        <use xlink:href="#c79884mYh9"
                             opacity="1"
                             fill="#4cb025"
                             fill-opacity="0"></use>
                        <g>
                            <use xlink:href="#c79884mYh9"
                                 opacity="1"
                                 fill-opacity="0"
                                 stroke="#47bc8a"
                                 stroke-width="45"
                                 stroke-opacity="1"></use>
                        </g>
                    </g>
                    <g>
                        <use xlink:href="#c1jy60AYg2"
                             opacity="1"
                             fill="#4cb025"
                             fill-opacity="0"></use>
                        <g>
                            <use xlink:href="#c1jy60AYg2"
                                 opacity="1"
                                 fill-opacity="0"
                                 stroke="#f78b04"
                                 stroke-width="45"
                                 stroke-opacity="1"></use>
                        </g>
                    </g>
                    <g>
                        <use xlink:href="#a7ZgerjaCn"
                             opacity="1"
                             fill="#4cb025"
                             fill-opacity="0"></use>
                        <g>
                            <use xlink:href="#a7ZgerjaCn"
                                 opacity="1"
                                 fill-opacity="0"
                                 stroke="#cd4525"
                                 stroke-width="45"
                                 stroke-opacity="1"></use>
                        </g>
                    </g>
                    <g>
                        <use xlink:href="#dOCr6CfuV"
                             opacity="1"
                             fill="#4cb025"
                             fill-opacity="0"></use>
                        <g>
                            <use xlink:href="#dOCr6CfuV"
                                 opacity="1"
                                 fill-opacity="0"
                                 stroke="#403194"
                                 stroke-width="45"
                                 stroke-opacity="1"></use>
                        </g>
                    </g>
                </g>
            </g>
        </svg>