<svg id="Layer_1" data-name="Layer 1" xmlns="http://www.w3.org/2000/svg" viewBox="0 0 11.41 17.12"><defs><style>.cls-1{fill:#f93943;}</style></defs><path class="cls-1" d="M11.41,5.71a4.75,4.75,0,0,1-.36,2L7,16.33a1.35,1.35,0,0,1-.53.58,1.44,1.44,0,0,1-.75.21A1.48,1.48,0,0,1,5,16.91a1.25,1.25,0,0,1-.51-.58L.37,7.7a4.59,4.59,0,0,1-.37-2,5.53,5.53,0,0,1,1.67-4A5.53,5.53,0,0,1,5.71,0a5.5,5.5,0,0,1,4,1.67,5.49,5.49,0,0,1,1.67,4m-3.69,2a2.71,2.71,0,0,0,.84-2,2.75,2.75,0,0,0-.84-2,2.71,2.71,0,0,0-2-.84,2.75,2.75,0,0,0-2,.84,2.75,2.75,0,0,0-.84,2,2.71,2.71,0,0,0,.84,2,2.75,2.75,0,0,0,2,.84,2.71,2.71,0,0,0,2-.84"/></svg>