<svg id="Layer_1" data-name="Layer 1" xmlns="http://www.w3.org/2000/svg" viewBox="0 0 17.09 13.43"><defs><style>.cls-1{fill:#f93943;}</style></defs><path class="cls-1" d="M17.09,1.53A2.55,2.55,0,0,1,16.62,3a4.77,4.77,0,0,1-1.16,1.17L11,7.24l-.4.29-.52.36c-.13.09-.3.2-.49.31A3.8,3.8,0,0,1,9,8.46a1.72,1.72,0,0,1-.48.08h0a1.71,1.71,0,0,1-.47-.08,3.36,3.36,0,0,1-.55-.26c-.2-.11-.36-.22-.5-.31L6.5,7.53l-.41-.29L3.59,5.5,1.64,4.14A5,5,0,0,1,.52,3,2.22,2.22,0,0,1,0,1.74,1.88,1.88,0,0,1,.4.5,1.36,1.36,0,0,1,1.53,0h14a1.45,1.45,0,0,1,1.07.45,1.44,1.44,0,0,1,.46,1.08m0,2.8V11.9a1.54,1.54,0,0,1-1.53,1.53h-14A1.47,1.47,0,0,1,.45,13,1.47,1.47,0,0,1,0,11.9V4.33a5.12,5.12,0,0,0,1,.83Q4.41,7.5,5.7,8.45c.36.27.66.47.88.62a5.85,5.85,0,0,0,.91.46,2.62,2.62,0,0,0,1,.23h0a2.63,2.63,0,0,0,1-.23,5.28,5.28,0,0,0,.9-.46c.23-.15.52-.35.88-.62Q13,7.28,16.13,5.16a5.57,5.57,0,0,0,1-.83"/></svg>