<?xml version="1.0" encoding="utf-8"?>
<!-- Generator: Adobe Illustrator 26.1.0, SVG Export Plug-In . SVG Version: 6.00 Build 0)  -->
<svg version="1.1" id="Layer_1" xmlns="http://www.w3.org/2000/svg" xmlns:xlink="http://www.w3.org/1999/xlink" x="0px" y="0px"
	 viewBox="0 0 200 100" style="enable-background:new 0 0 200 100;" xml:space="preserve">
<style type="text/css">
	.st0{fill-rule:evenodd;clip-rule:evenodd;fill:#151A31;}
	.st1{fill:#151A31;}
</style>
<g>
	<g>
		<g>
			<g>
				<path class="st0" d="M51.55,61.79c-2.73-11.89-6.82-25.36-14.08-32.19c-1.81-1.7-5.17-4.21-8.38-3.47
					c-5.57,1.28-7.06,9.98-7.84,16.89c-0.8,7.16-0.76,15.38,0.28,21.13c-0.2-8.53-0.59-17.48,1.13-25.38
					c0.97-4.45,3.05-11.3,8.49-10.58c3.62,0.48,6.85,5.39,8.77,8.49c6.15,9.95,9.33,22.71,11.51,35.93
					c0.18,1.11,0.21,2.63,2.06,2.06C53.61,70.47,52.54,66.09,51.55,61.79z"/>
			</g>
			<g>
				<path class="st0" d="M65.47,62.55c3.09-4.29,6.4-9.36,6.81-15.21c0.77-11-11.32-8.37-17.66-6.03c-2.46,0.91-4.9,1.86-6.82,3.36
					c0.24,0.36,0.32,0.89,0.52,1.29c4.35-1.4,10.66-4.9,16.74-4.4c7.34,0.6,5.29,7.73,2.72,12.24c-3.11,5.44-6.76,9.89-10.81,14.31
					c-0.92,1-2.16,2.01-2.32,2.84c-0.19,0.98,0.43,1.96,0.39,2.96C58.32,71.07,62.21,67.08,65.47,62.55z"/>
			</g>
			<g>
				<path class="st0" d="M43.29,46.86c-6.47,3.85-12.64,8.53-18.28,13.04c-0.79,0.63-2.08,1.1-2.19,2.32
					c6.59-5.09,13.23-10.13,21.11-13.94C43.75,47.77,43.63,47.21,43.29,46.86z"/>
			</g>
			<g>
				<path class="st0" d="M53.5,74.67c-1.85,0.57-1.88-0.95-2.06-2.06c-2.18-13.22-5.36-25.98-11.51-35.93
					c-1.92-3.1-5.15-8.01-8.77-8.49c-5.45-0.72-7.52,6.12-8.49,10.58c-1.72,7.9-1.32,16.85-1.13,25.38
					c-1.04-5.75-1.09-13.96-0.28-21.13c0.78-6.91,2.27-15.6,7.84-16.89c3.21-0.74,6.57,1.77,8.38,3.47
					c7.26,6.83,11.35,20.31,14.08,32.19C52.54,66.09,53.61,70.47,53.5,74.67z"/>
			</g>
			<g>
				<path class="st0" d="M55.05,73.9c0.04-1.01-0.58-1.98-0.39-2.96c0.16-0.83,1.4-1.84,2.32-2.84c4.05-4.42,7.69-8.87,10.81-14.31
					c2.57-4.5,4.62-11.63-2.72-12.24c-6.08-0.5-12.4,3-16.74,4.4c-0.2-0.4-0.28-0.93-0.52-1.29c1.92-1.5,4.36-2.45,6.82-3.36
					c6.34-2.33,18.43-4.97,17.66,6.03c-0.41,5.85-3.73,10.92-6.81,15.21C62.21,67.08,58.32,71.07,55.05,73.9z"/>
			</g>
			<g>
				<path class="st0" d="M43.94,48.27c-7.88,3.81-14.52,8.85-21.11,13.94c0.11-1.22,1.4-1.69,2.19-2.32
					c5.64-4.51,11.81-9.19,18.28-13.04C43.63,47.21,43.75,47.77,43.94,48.27z"/>
			</g>
		</g>
	</g>
	<g>
		<path class="st1" d="M97.09,42.5c0,0.79-0.14,1.51-0.41,2.18c-0.27,0.67-0.65,1.25-1.14,1.73c-0.49,0.49-1.07,0.87-1.74,1.15
			s-1.42,0.41-2.23,0.41c-0.8,0-1.54-0.14-2.21-0.41c-0.67-0.27-1.26-0.65-1.75-1.14c-0.49-0.49-0.87-1.07-1.15-1.73
			c-0.28-0.67-0.41-1.39-0.41-2.18c0-0.79,0.13-1.51,0.41-2.18c0.27-0.67,0.65-1.25,1.14-1.74c0.49-0.49,1.07-0.87,1.74-1.15
			c0.67-0.27,1.41-0.41,2.21-0.41c0.81,0,1.56,0.14,2.23,0.41c0.67,0.27,1.26,0.65,1.75,1.14c0.49,0.49,0.87,1.07,1.15,1.73
			C96.95,40.99,97.09,41.71,97.09,42.5z M95.49,42.5c0-0.58-0.09-1.12-0.28-1.62c-0.19-0.5-0.45-0.94-0.79-1.31
			c-0.34-0.37-0.75-0.66-1.23-0.88c-0.48-0.21-1.03-0.32-1.63-0.32s-1.15,0.11-1.63,0.32c-0.48,0.22-0.89,0.51-1.22,0.88
			c-0.33,0.37-0.59,0.81-0.78,1.31c-0.18,0.5-0.28,1.04-0.28,1.62c0,0.58,0.09,1.12,0.28,1.62c0.19,0.5,0.45,0.94,0.78,1.31
			c0.33,0.37,0.74,0.66,1.22,0.88c0.48,0.21,1.03,0.32,1.63,0.32c0.61,0,1.15-0.11,1.63-0.32c0.48-0.22,0.89-0.51,1.23-0.88
			c0.34-0.37,0.6-0.81,0.79-1.31C95.4,43.62,95.49,43.08,95.49,42.5z"/>
		<path class="st1" d="M101.56,47.69l-1.47,0l-0.02-16.8l1.47,0L101.56,47.69z"/>
		<path class="st1" d="M115.47,47.68l-1.47,0l0-1.73l-0.04,0c-0.24,0.36-0.52,0.66-0.84,0.91c-0.33,0.25-0.67,0.46-1.02,0.62
			c-0.36,0.16-0.72,0.28-1.1,0.36c-0.38,0.07-0.74,0.11-1.08,0.11c-0.82,0-1.56-0.14-2.23-0.41c-0.67-0.27-1.26-0.65-1.75-1.14
			c-0.49-0.49-0.87-1.07-1.15-1.73c-0.28-0.67-0.41-1.39-0.41-2.18c0-0.79,0.13-1.51,0.41-2.18c0.27-0.67,0.65-1.25,1.14-1.74
			c0.49-0.49,1.07-0.87,1.74-1.15c0.67-0.27,1.42-0.41,2.23-0.41c0.34,0,0.7,0.04,1.08,0.11c0.38,0.07,0.74,0.19,1.1,0.35
			c0.36,0.16,0.7,0.37,1.02,0.62c0.33,0.25,0.61,0.55,0.85,0.91l0.04,0l-0.01-8.13l1.47,0L115.47,47.68z M105.98,42.49
			c0,0.58,0.09,1.12,0.28,1.62c0.19,0.5,0.45,0.94,0.79,1.31c0.34,0.37,0.75,0.66,1.23,0.88c0.48,0.21,1.03,0.32,1.63,0.32
			c0.59,0,1.14-0.11,1.66-0.32c0.51-0.22,0.95-0.51,1.32-0.88c0.37-0.37,0.66-0.81,0.87-1.31c0.21-0.5,0.31-1.04,0.31-1.62
			c0-0.58-0.11-1.12-0.31-1.62c-0.21-0.5-0.5-0.94-0.87-1.31c-0.37-0.37-0.81-0.66-1.32-0.88c-0.51-0.21-1.06-0.32-1.66-0.32
			c-0.61,0-1.15,0.11-1.63,0.32c-0.48,0.22-0.89,0.51-1.23,0.88c-0.34,0.37-0.6,0.81-0.79,1.31
			C106.07,41.37,105.98,41.91,105.98,42.49z"/>
		<path class="st1" d="M130.36,39.73c-0.22-0.43-0.52-0.77-0.89-1.02c-0.37-0.25-0.82-0.38-1.36-0.38c-0.25,0-0.51,0.03-0.77,0.09
			c-0.26,0.06-0.49,0.15-0.7,0.28c-0.21,0.13-0.37,0.29-0.5,0.48c-0.13,0.19-0.19,0.43-0.19,0.71c0,0.49,0.17,0.84,0.51,1.07
			c0.34,0.22,0.85,0.41,1.53,0.58l1.49,0.35c0.73,0.16,1.33,0.49,1.81,0.99c0.48,0.5,0.72,1.11,0.72,1.86
			c0,0.56-0.11,1.05-0.34,1.46c-0.23,0.41-0.53,0.74-0.91,1c-0.38,0.26-0.81,0.45-1.3,0.57c-0.49,0.12-0.99,0.18-1.49,0.18
			c-0.8,0-1.54-0.15-2.23-0.45c-0.69-0.3-1.28-0.82-1.77-1.56l1.27-0.87c0.3,0.47,0.67,0.85,1.12,1.13
			c0.45,0.28,0.99,0.42,1.61,0.42c0.3,0,0.59-0.03,0.89-0.1c0.3-0.07,0.56-0.17,0.79-0.31c0.23-0.14,0.41-0.32,0.56-0.55
			c0.14-0.22,0.21-0.48,0.21-0.78c0-0.52-0.19-0.89-0.58-1.12c-0.39-0.23-0.85-0.41-1.4-0.54l-1.42-0.33
			c-0.18-0.04-0.42-0.12-0.72-0.22c-0.3-0.1-0.6-0.26-0.89-0.47c-0.29-0.21-0.54-0.48-0.75-0.81c-0.21-0.33-0.31-0.74-0.31-1.23
			c0-0.53,0.11-1,0.32-1.4c0.21-0.4,0.5-0.73,0.87-0.98c0.36-0.25,0.77-0.44,1.23-0.57c0.46-0.13,0.93-0.19,1.42-0.19
			c0.73,0,1.4,0.14,2.02,0.42c0.62,0.28,1.1,0.76,1.45,1.44L130.36,39.73z"/>
		<path class="st1" d="M139.69,38.58l-3,0l0.01,6.13c0,0.39,0.04,0.7,0.11,0.94c0.07,0.24,0.18,0.43,0.31,0.57
			c0.13,0.13,0.29,0.23,0.48,0.28c0.19,0.05,0.39,0.08,0.61,0.08c0.25,0,0.51-0.04,0.78-0.11c0.27-0.07,0.51-0.17,0.73-0.29
			l0.07,1.36c-0.55,0.25-1.21,0.38-1.98,0.38c-0.28,0-0.57-0.04-0.88-0.11c-0.3-0.07-0.58-0.21-0.83-0.42
			c-0.25-0.21-0.46-0.49-0.62-0.84c-0.16-0.36-0.25-0.82-0.25-1.4l-0.01-6.56l-2.2,0l0-1.33l2.2,0l0-2.93l1.47,0l0,2.93l3,0
			L139.69,38.58z"/>
		<path class="st1" d="M141.85,40.49c0-0.46-0.01-0.93-0.03-1.4c-0.02-0.47-0.04-1.09-0.06-1.84l1.44,0l0,1.93l0.04,0
			c0.1-0.28,0.25-0.55,0.44-0.81c0.19-0.26,0.43-0.49,0.7-0.7c0.27-0.21,0.59-0.37,0.96-0.5c0.36-0.13,0.77-0.19,1.23-0.19
			c0.41,0,0.78,0.04,1.09,0.13l-0.29,1.44c-0.19-0.07-0.47-0.11-0.84-0.11c-0.56,0-1.04,0.11-1.44,0.32c-0.4,0.22-0.73,0.49-1,0.82
			s-0.46,0.69-0.59,1.08c-0.13,0.39-0.19,0.76-0.19,1.11l0.01,5.87l-1.47,0L141.85,40.49z"/>
		<path class="st1" d="M149.7,42.84c0.05,0.52,0.17,1.01,0.38,1.47c0.21,0.46,0.48,0.86,0.82,1.19c0.34,0.33,0.73,0.6,1.18,0.79
			c0.44,0.19,0.93,0.29,1.44,0.29c0.79,0,1.46-0.18,2.03-0.55c0.57-0.36,1-0.78,1.3-1.26l1.13,0.93c-0.62,0.79-1.31,1.35-2.05,1.69
			c-0.75,0.34-1.55,0.51-2.41,0.51c-0.77,0-1.49-0.14-2.15-0.41c-0.66-0.27-1.23-0.65-1.7-1.14c-0.47-0.49-0.85-1.07-1.12-1.73
			c-0.28-0.67-0.41-1.39-0.41-2.18c0-0.79,0.13-1.51,0.4-2.18c0.27-0.67,0.64-1.25,1.11-1.74c0.47-0.49,1.03-0.87,1.67-1.15
			c0.64-0.27,1.33-0.41,2.07-0.41c0.78,0,1.49,0.14,2.11,0.42c0.62,0.28,1.15,0.65,1.57,1.12c0.42,0.47,0.75,1.01,0.97,1.64
			c0.22,0.63,0.33,1.3,0.34,2.01l0,0.67L149.7,42.84z M156.76,41.63c0-0.99-0.3-1.8-0.89-2.41c-0.59-0.61-1.42-0.92-2.49-0.92
			c-0.47,0-0.93,0.09-1.38,0.28c-0.44,0.19-0.83,0.43-1.17,0.75c-0.33,0.31-0.6,0.67-0.8,1.07c-0.2,0.4-0.3,0.82-0.3,1.25
			L156.76,41.63z"/>
		<path class="st1" d="M162.05,42.82c0.05,0.52,0.17,1.01,0.38,1.47c0.21,0.46,0.48,0.86,0.82,1.19c0.34,0.33,0.73,0.6,1.18,0.79
			c0.44,0.19,0.93,0.29,1.44,0.29c0.79,0,1.46-0.18,2.03-0.55c0.57-0.36,1-0.78,1.3-1.26l1.13,0.93c-0.62,0.79-1.31,1.35-2.05,1.69
			c-0.75,0.34-1.55,0.51-2.41,0.51c-0.77,0-1.49-0.14-2.15-0.41c-0.66-0.27-1.23-0.65-1.7-1.14c-0.47-0.49-0.85-1.07-1.12-1.73
			c-0.28-0.67-0.41-1.39-0.41-2.18c0-0.79,0.13-1.51,0.4-2.18c0.27-0.67,0.64-1.25,1.11-1.74c0.47-0.49,1.03-0.87,1.67-1.15
			c0.64-0.27,1.33-0.41,2.07-0.41c0.78,0,1.49,0.14,2.11,0.42c0.62,0.28,1.15,0.65,1.57,1.12c0.42,0.47,0.75,1.01,0.97,1.64
			c0.22,0.63,0.33,1.3,0.34,2.01l0,0.67L162.05,42.82z M169.12,41.61c0-0.99-0.3-1.8-0.89-2.41c-0.59-0.61-1.42-0.92-2.49-0.92
			c-0.47,0-0.93,0.09-1.38,0.28c-0.44,0.19-0.83,0.43-1.17,0.75c-0.33,0.31-0.6,0.67-0.8,1.07c-0.2,0.4-0.3,0.82-0.3,1.25
			L169.12,41.61z"/>
		<path class="st1" d="M178.76,38.53l-3,0l0.01,6.13c0,0.39,0.04,0.7,0.11,0.94c0.07,0.24,0.18,0.43,0.31,0.57
			c0.13,0.13,0.29,0.23,0.48,0.28c0.19,0.05,0.39,0.08,0.61,0.08c0.25,0,0.51-0.04,0.78-0.11c0.27-0.07,0.51-0.17,0.73-0.29
			l0.07,1.36c-0.55,0.25-1.21,0.38-1.98,0.38c-0.28,0-0.57-0.04-0.88-0.11c-0.3-0.07-0.58-0.21-0.83-0.42
			c-0.25-0.21-0.46-0.49-0.62-0.84c-0.16-0.36-0.25-0.82-0.25-1.4l-0.01-6.56l-2.2,0l0-1.33l2.2,0l0-2.93l1.47,0l0,2.93l3,0
			L178.76,38.53z"/>
	</g>
	<g>
		<path class="st1" d="M101.75,57.19c-0.19-0.36-0.43-0.64-0.74-0.85c-0.31-0.21-0.69-0.31-1.13-0.31c-0.21,0-0.42,0.03-0.64,0.07
			c-0.22,0.05-0.41,0.13-0.58,0.23c-0.17,0.11-0.31,0.24-0.42,0.4c-0.1,0.16-0.16,0.36-0.16,0.59c0,0.41,0.14,0.7,0.43,0.89
			c0.28,0.18,0.71,0.35,1.28,0.48l1.24,0.29c0.6,0.14,1.11,0.41,1.51,0.82c0.4,0.41,0.6,0.93,0.6,1.55c0,0.47-0.09,0.87-0.29,1.21
			c-0.19,0.34-0.44,0.62-0.76,0.83c-0.31,0.22-0.68,0.37-1.08,0.47c-0.41,0.1-0.82,0.15-1.24,0.15c-0.67,0-1.29-0.13-1.86-0.38
			c-0.57-0.25-1.07-0.69-1.47-1.3l1.06-0.72c0.25,0.4,0.56,0.71,0.94,0.94c0.38,0.23,0.82,0.35,1.34,0.35
			c0.25,0,0.49-0.03,0.74-0.08c0.25-0.06,0.47-0.14,0.66-0.26c0.19-0.12,0.35-0.27,0.46-0.45c0.12-0.19,0.18-0.4,0.17-0.65
			c0-0.43-0.16-0.74-0.48-0.93c-0.32-0.19-0.71-0.34-1.17-0.45l-1.19-0.28c-0.15-0.04-0.35-0.1-0.6-0.18
			c-0.25-0.09-0.5-0.22-0.74-0.39c-0.24-0.17-0.45-0.4-0.62-0.68c-0.17-0.28-0.26-0.62-0.26-1.03c0-0.44,0.09-0.83,0.27-1.17
			c0.18-0.33,0.42-0.61,0.72-0.82c0.3-0.21,0.64-0.37,1.03-0.47c0.38-0.11,0.78-0.16,1.19-0.16c0.6,0,1.17,0.12,1.69,0.35
			c0.52,0.23,0.92,0.63,1.21,1.2L101.75,57.19z"/>
		<path class="st1" d="M113.81,59.46c0,0.65-0.11,1.26-0.34,1.82c-0.23,0.56-0.55,1.04-0.95,1.45c-0.41,0.41-0.89,0.73-1.45,0.96
			c-0.56,0.23-1.18,0.34-1.86,0.34c-0.67,0-1.28-0.11-1.84-0.34c-0.56-0.23-1.05-0.55-1.46-0.95c-0.41-0.41-0.73-0.89-0.96-1.44
			c-0.23-0.56-0.34-1.16-0.34-1.81c0-0.65,0.11-1.26,0.34-1.82c0.23-0.56,0.54-1.04,0.95-1.45c0.41-0.41,0.89-0.73,1.45-0.96
			c0.56-0.23,1.18-0.34,1.84-0.34c0.68,0,1.3,0.11,1.86,0.34c0.56,0.23,1.05,0.55,1.46,0.95c0.41,0.41,0.73,0.89,0.96,1.44
			C113.7,58.2,113.81,58.8,113.81,59.46z M112.48,59.46c0-0.48-0.08-0.93-0.23-1.35c-0.16-0.42-0.37-0.78-0.66-1.09
			c-0.28-0.31-0.63-0.55-1.03-0.73c-0.4-0.18-0.86-0.27-1.36-0.27s-0.96,0.09-1.36,0.27c-0.4,0.18-0.74,0.42-1.02,0.73
			c-0.28,0.31-0.49,0.67-0.65,1.09c-0.15,0.42-0.23,0.87-0.23,1.35c0,0.48,0.08,0.93,0.23,1.35c0.15,0.42,0.37,0.78,0.65,1.09
			c0.28,0.31,0.62,0.55,1.02,0.73c0.4,0.18,0.86,0.27,1.36,0.27s0.96-0.09,1.36-0.27c0.4-0.18,0.74-0.42,1.03-0.73
			c0.28-0.31,0.5-0.67,0.66-1.09C112.4,60.39,112.48,59.94,112.48,59.46z"/>
		<path class="st1" d="M117.54,63.79l-1.22,0l-0.02-14l1.22,0L117.54,63.79z"/>
		<path class="st1" d="M126.75,63.77c-0.03-0.23-0.04-0.47-0.05-0.69c-0.01-0.23-0.01-0.46-0.01-0.69l-0.04,0
			c-0.14,0.23-0.31,0.45-0.52,0.65c-0.21,0.2-0.44,0.37-0.7,0.51c-0.26,0.14-0.53,0.25-0.82,0.33c-0.29,0.08-0.58,0.12-0.86,0.12
			c-1.11,0-1.93-0.29-2.46-0.88c-0.53-0.59-0.8-1.42-0.8-2.51l-0.01-5.5l1.22,0l0.01,4.8c0,0.48,0.04,0.91,0.11,1.28
			c0.07,0.37,0.2,0.68,0.38,0.93c0.18,0.25,0.42,0.44,0.72,0.57c0.3,0.13,0.68,0.19,1.14,0.19c0.06,0,0.23-0.02,0.52-0.07
			c0.28-0.05,0.58-0.19,0.9-0.41c0.31-0.22,0.59-0.56,0.84-1c0.25-0.44,0.37-1.06,0.37-1.85l-0.01-4.45l1.22,0l0.01,6.76
			c0,0.23,0.01,0.53,0.03,0.89c0.02,0.36,0.04,0.7,0.07,1.02L126.75,63.77z"/>
		<path class="st1" d="M135.26,56.21l-2.5,0l0.01,5.11c0,0.32,0.03,0.58,0.09,0.79s0.15,0.36,0.26,0.47
			c0.11,0.11,0.24,0.19,0.4,0.23c0.15,0.04,0.32,0.06,0.51,0.06c0.21,0,0.43-0.03,0.65-0.09c0.22-0.06,0.43-0.14,0.61-0.24
			l0.06,1.13c-0.46,0.21-1.01,0.32-1.65,0.32c-0.23,0-0.48-0.03-0.73-0.09c-0.25-0.06-0.49-0.18-0.69-0.35
			c-0.21-0.17-0.38-0.41-0.52-0.7c-0.14-0.3-0.2-0.68-0.21-1.17l-0.01-5.46l-1.83,0l0-1.11l1.83,0l0-2.44l1.22,0l0,2.44l2.5,0
			L135.26,56.21z"/>
		<path class="st1" d="M138.7,51.76c0,0.26-0.09,0.47-0.28,0.64c-0.19,0.17-0.39,0.25-0.61,0.25c-0.22,0-0.43-0.08-0.61-0.25
			c-0.19-0.17-0.28-0.38-0.28-0.64c0-0.26,0.09-0.47,0.28-0.64c0.18-0.17,0.39-0.25,0.61-0.25c0.22,0,0.43,0.08,0.61,0.25
			C138.6,51.29,138.7,51.5,138.7,51.76z M138.43,63.76l-1.22,0l-0.01-8.67l1.22,0L138.43,63.76z"/>
		<path class="st1" d="M150.13,59.41c0,0.65-0.11,1.26-0.34,1.82c-0.23,0.56-0.55,1.04-0.95,1.45s-0.89,0.73-1.45,0.96
			c-0.56,0.23-1.18,0.34-1.86,0.34c-0.67,0-1.28-0.11-1.84-0.34c-0.56-0.23-1.05-0.55-1.46-0.95c-0.41-0.41-0.73-0.89-0.96-1.44
			c-0.23-0.56-0.34-1.16-0.34-1.81c0-0.65,0.11-1.26,0.34-1.82c0.23-0.56,0.54-1.04,0.95-1.45c0.41-0.41,0.89-0.73,1.45-0.96
			c0.56-0.23,1.18-0.34,1.84-0.34c0.68,0,1.3,0.11,1.86,0.34c0.56,0.23,1.05,0.55,1.46,0.95c0.41,0.41,0.73,0.89,0.96,1.44
			C150.02,58.15,150.13,58.76,150.13,59.41z M148.8,59.41c0-0.48-0.08-0.93-0.23-1.35c-0.16-0.42-0.37-0.78-0.66-1.09
			c-0.28-0.31-0.63-0.55-1.03-0.73c-0.4-0.18-0.86-0.27-1.36-0.27c-0.51,0-0.96,0.09-1.36,0.27c-0.4,0.18-0.74,0.42-1.02,0.73
			c-0.28,0.31-0.49,0.67-0.65,1.09c-0.15,0.42-0.23,0.87-0.23,1.35c0,0.48,0.08,0.93,0.23,1.35c0.15,0.42,0.37,0.78,0.65,1.09
			c0.28,0.31,0.62,0.55,1.02,0.73c0.4,0.18,0.86,0.27,1.36,0.27c0.51,0,0.96-0.09,1.36-0.27c0.4-0.18,0.74-0.42,1.03-0.73
			c0.28-0.31,0.5-0.67,0.66-1.09C148.72,60.35,148.8,59.9,148.8,59.41z"/>
		<path class="st1" d="M153.52,55.07c0.02,0.23,0.04,0.47,0.05,0.69c0.01,0.23,0.01,0.46,0.01,0.69l0.04,0
			c0.14-0.23,0.31-0.45,0.52-0.65c0.21-0.2,0.44-0.37,0.7-0.51c0.26-0.14,0.53-0.25,0.82-0.33c0.29-0.08,0.58-0.12,0.86-0.12
			c1.11,0,1.93,0.29,2.46,0.88c0.53,0.59,0.8,1.42,0.8,2.51l0.01,5.5l-1.22,0l-0.01-4.8c0-0.96-0.17-1.7-0.5-2.21
			c-0.33-0.51-0.95-0.77-1.85-0.77c-0.06,0-0.23,0.03-0.52,0.07c-0.28,0.05-0.58,0.19-0.9,0.41c-0.31,0.22-0.6,0.56-0.84,1
			c-0.25,0.44-0.37,1.06-0.37,1.85l0.01,4.44l-1.22,0l-0.01-6.76c0-0.23-0.01-0.53-0.03-0.89c-0.02-0.36-0.04-0.7-0.07-1.02
			L153.52,55.07z"/>
		<path class="st1" d="M167.24,57.11c-0.19-0.36-0.43-0.64-0.74-0.85c-0.31-0.21-0.69-0.31-1.13-0.31c-0.21,0-0.42,0.03-0.64,0.07
			c-0.22,0.05-0.41,0.13-0.58,0.23c-0.17,0.11-0.31,0.24-0.42,0.4c-0.1,0.16-0.16,0.36-0.16,0.59c0,0.41,0.14,0.7,0.43,0.89
			c0.28,0.18,0.71,0.35,1.28,0.48l1.24,0.29c0.6,0.14,1.11,0.41,1.51,0.82c0.4,0.41,0.6,0.93,0.6,1.55c0,0.47-0.09,0.87-0.29,1.21
			c-0.19,0.34-0.44,0.62-0.76,0.83c-0.31,0.22-0.68,0.37-1.08,0.47s-0.82,0.15-1.24,0.15c-0.67,0-1.29-0.13-1.86-0.38
			c-0.57-0.25-1.07-0.69-1.47-1.3l1.06-0.72c0.25,0.4,0.56,0.71,0.94,0.94c0.38,0.23,0.82,0.35,1.34,0.35
			c0.25,0,0.49-0.03,0.74-0.08c0.25-0.06,0.47-0.14,0.66-0.26c0.19-0.12,0.35-0.27,0.46-0.45c0.12-0.19,0.18-0.4,0.17-0.65
			c0-0.43-0.16-0.74-0.48-0.93c-0.32-0.19-0.71-0.34-1.17-0.45l-1.19-0.28c-0.15-0.04-0.35-0.1-0.6-0.18
			c-0.25-0.09-0.5-0.22-0.74-0.39c-0.24-0.17-0.45-0.4-0.62-0.68c-0.17-0.28-0.26-0.62-0.26-1.03c0-0.44,0.09-0.83,0.27-1.17
			c0.18-0.33,0.42-0.61,0.72-0.82c0.3-0.21,0.64-0.37,1.03-0.47c0.38-0.11,0.78-0.16,1.19-0.16c0.6,0,1.17,0.12,1.69,0.35
			c0.52,0.23,0.92,0.63,1.21,1.2L167.24,57.11z"/>
	</g>
</g>
</svg>
